<?xml version="1.0" encoding="UTF-8"?>
<svg id="Calque_1" xmlns="http://www.w3.org/2000/svg" version="1.1" viewBox="0 0 3840 1120">
  <!-- Generator: Adobe Illustrator 29.8.3, SVG Export Plug-In . SVG Version: 2.1.1 Build 3)  -->
  <defs>
    <style>
      .st0 {
        display: none;
        fill: #fff;
      }
    </style>
  </defs>
  <path d="M1703.25,418.73c-61.7-81.87-175.67-94.6-248.04-18.52-76.94,80.88-79.51,229.73-6.23,313.82,61.54,70.63,159.06,80.79,231.75,20.12,2.76.47,23.39,26.93,28.26,31.79,2.89,2.89,10.83,4.74,8.12,10.07-78.51,60.99-194.74,60.7-276.93,6.82-221.74-145.36-108.94-515.52,168.54-478.54,183,24.39,267.14,244.23,176.28,395.68-8.87.18-36.31-60.4-38.87-71.08-4.04-16.85,2.75-31.3,3.84-47.91,3.6-54.63-13.76-118.5-46.73-162.25ZM1369.99,542.01c-3.73-.52-6.92,0-7.99,3.97l7.98,2.02v-5.99ZM1368,585.98c-2.78-5.53-7.46-9.17-13.99-7.96l13.99,7.96ZM1365.99,617.99c2.62-2.44-5.23-8.54-7.98-5.98s5.23,8.54,7.98,5.98Z"/>
  <path d="M1683.97,424c8.65,16.11,20.52,30.26,27.78,47.25,16.02,37.48,8.22,42.96,6.19,79.86-6.42,116.53,79.85,246.8,210.17,220,132.09-27.16,174.18-202.7,122.86-313.08-49.38-106.21-170.67-147.73-261.97-64.07l-36.91-44.74c94.39-71.95,234.86-60.68,317.96,23.73,159.9,162.4,48.1,465.1-191.03,449.03-179.17-12.04-278.99-202.66-213.96-363.92,1.38-3.42,15.5-36.38,18.91-34.06ZM1691.99,542.01c-3.73-.52-6.92,0-7.99,3.97l7.98,2.02v-5.99ZM1688,583.98c-.61-2.89-9.73-11.07-11.99-4.97l11.99,4.97ZM1687.99,617.99c.5-5.04-3.19-6.75-7.99-5.97l2.26,5.7,5.73.27Z"/>
  <path class="st0" d="M1368,585.98l-13.99-7.96c6.53-1.21,11.21,2.43,13.99,7.96Z"/>
  <path class="st0" d="M1365.99,617.99c-2.75,2.56-10.6-3.54-7.98-5.98,2.75-2.56,10.6,3.54,7.98,5.98Z"/>
  <path class="st0" d="M1369.99,542.01v5.99s-7.99-2.02-7.99-2.02c1.07-3.98,4.26-4.48,7.99-3.97Z"/>
  <path class="st0" d="M1688,583.98l-11.99-4.97c2.26-6.1,11.38,2.08,11.99,4.97Z"/>
  <path class="st0" d="M1687.99,617.99l-5.73-.27-2.26-5.7c4.8-.78,8.49.93,7.99,5.97Z"/>
  <path class="st0" d="M1691.99,542.01v5.99s-7.99-2.02-7.99-2.02c1.07-3.98,4.26-4.48,7.99-3.97Z"/>
</svg>