<?xml version="1.0" encoding="UTF-8"?>
<svg id="Calque_1" data-name="Calque 1" xmlns="http://www.w3.org/2000/svg" viewBox="0 0 1998 520.89">
  <defs>
    <style>
      .cls-1 {
        fill: #fff;
      }
    </style>
  </defs>
  <path d="M709.25,117.03c-61.7-81.87-175.67-94.6-248.04-18.52-76.94,80.88-79.51,229.73-6.23,313.82,61.54,70.63,159.06,80.79,231.75,20.12,2.76.47,23.39,26.93,28.26,31.79,2.89,2.89,10.83,4.74,8.12,10.07-78.51,60.99-194.74,60.7-276.93,6.82C224.43,335.77,337.24-34.4,614.72,2.58c183,24.39,267.14,244.23,176.28,395.68-8.87.18-36.31-60.4-38.87-71.08-4.04-16.85,2.75-31.3,3.84-47.91,3.6-54.63-13.76-118.5-46.73-162.25ZM375.99,240.31c-3.73-.52-6.92,0-7.99,3.97l7.98,2.02v-5.99ZM374,284.28c-2.78-5.53-7.46-9.17-13.99-7.96l13.99,7.96ZM371.99,316.29c2.62-2.44-5.23-8.54-7.98-5.98s5.23,8.54,7.98,5.98Z"/>
  <path d="M689.97,122.3c8.65,16.11,20.52,30.26,27.78,47.25,16.02,37.48,8.22,42.96,6.19,79.86-6.42,116.53,79.85,246.8,210.17,220,132.09-27.16,174.18-202.7,122.86-313.08-49.38-106.21-170.67-147.73-261.97-64.07l-36.91-44.74c94.39-71.95,234.86-60.68,317.96,23.73,159.9,162.4,48.1,465.1-191.03,449.03-179.17-12.04-278.99-202.66-213.96-363.92,1.38-3.42,15.5-36.38,18.91-34.06ZM697.99,240.31c-3.73-.52-6.92,0-7.99,3.97l7.98,2.02v-5.99ZM694,282.28c-.61-2.89-9.73-11.07-11.99-4.97l11.99,4.97ZM693.99,316.29c.5-5.04-3.19-6.75-7.99-5.97l2.26,5.7,5.73.27Z"/>
  <path class="cls-1" d="M1253.99,72.31c.9,6.75.32,8.06-5.97,9.99l2-10h3.97Z"/>
  <path class="cls-1" d="M1248,38.32l-2.02,7.99-5.97-2.03c-1.45-4.67,3.65-5.55,8-5.96Z"/>
  <polygon class="cls-1" points="1241.99 466.29 1234.01 466.28 1234.02 464.33 1238.99 460.31 1241.99 466.29"/>
  <path class="cls-1" d="M1262,54.32c-.66,4.08-4.87,2.46-7.98,3.98v-3.99s7.98,0,7.98,0Z"/>
  <path class="cls-1" d="M33.4,58.7c43.57,2.49,96.34-6.99,138.16,5.04,32.89,9.46,53.82,26.02,61.89,60.11,16.29,68.84-27.86,120.09-96.36,124.53-20.97,1.36-43.39.05-64,0-14.36-.03-28.93.59-43.21-.96-2.08-1.45-2.92-21.45-3.01-25.88-.87-42.33,4.44-85.82-.67-128.03,4.72-8.38-2.98-31.81,7.2-34.81Z"/>
  <path class="cls-1" d="M21.99,272.31l1.2,8.1c-1.53,1.83-5.59,1.55-7.2,2.89-2.96,2.46-.25,7.3-3.97,6.99l2.09-10.87c-2.83-2.1-5.21.1-4.09-5.11l11.97-2Z"/>
  <path class="cls-1" d="M9.55,264.66c.71,1.21,1.37,5.34-.54,5.63l-9.01-9.97c1.83-.54,9.28,3.89,9.55,4.34Z"/>
  <path class="cls-1" d="M23.99,264.32v1.96s-7.07,1.41-7.07,1.41c-2.52-.95-3.41-2.81-2.9-5.39l9.97,2.02Z"/>
  <path class="cls-1" d="M374,284.28l-13.99-7.96c6.53-1.21,11.21,2.43,13.99,7.96Z"/>
  <path class="cls-1" d="M371.99,316.29c-2.75,2.56-10.6-3.54-7.98-5.98,2.75-2.56,10.6,3.54,7.98,5.98Z"/>
  <path class="cls-1" d="M375.99,240.31v5.99s-7.99-2.02-7.99-2.02c1.07-3.98,4.26-4.48,7.99-3.97Z"/>
  <path class="cls-1" d="M694,282.28l-11.99-4.97c2.26-6.1,11.38,2.08,11.99,4.97Z"/>
  <path class="cls-1" d="M693.99,316.29l-5.73-.27-2.26-5.7c4.8-.78,8.49.93,7.99,5.97Z"/>
  <path class="cls-1" d="M697.99,240.31v5.99s-7.99-2.02-7.99-2.02c1.07-3.98,4.26-4.48,7.99-3.97Z"/>
  <polygon class="cls-1" points="1752 444.32 1741.96 456.3 1738.02 453.27 1742.17 444.44 1752 444.32"/>
  <path class="cls-1" d="M1890,254.32c-1.54,5.63-5.67,1.84-10,1.96,1.93-5.87,5.55-2.77,10-1.96Z"/>
  <path class="cls-1" d="M1747.98,460.33c.28.26-.1,1.31,0,1.95-3.65.28-8.71.64-9.99-3.96,2.05-.15,9.09,1.17,9.98,2.01Z"/>
  <path class="cls-1" d="M1998,54.32l-2.02,5.98h-3.97c-.64-3.79,2.34-6.65,5.99-5.98Z"/>
  <polygon class="cls-1" points="1731.99 446.31 1731.98 450.3 1724.02 450.3 1724.01 446.31 1731.99 446.31"/>
</svg>