<?xml version="1.0" encoding="UTF-8"?>
<svg id="Calque_1" xmlns="http://www.w3.org/2000/svg" version="1.1" viewBox="0 0 510.24 510.24">
  <!-- Generator: Adobe Illustrator 29.8.3, SVG Export Plug-In . SVG Version: 2.1.1 Build 3)  -->
  <path d="M237.53,172.61c-35.49-47.1-101.06-54.42-142.7-10.66-44.26,46.53-45.74,132.16-3.59,180.54,35.4,40.63,91.51,46.48,133.32,11.57,1.59.27,13.46,15.49,16.26,18.29,1.66,1.66,6.23,2.73,4.67,5.79-45.17,35.09-112.03,34.92-159.31,3.93C-41.38,298.45,23.52,85.5,183.15,106.77c105.28,14.03,153.68,140.5,101.41,227.63-5.1.1-20.89-34.75-22.36-40.89-2.32-9.69,1.58-18.01,2.21-27.56,2.07-31.43-7.92-68.17-26.88-93.34ZM45.81,243.53c-2.15-.3-3.98,0-4.6,2.28l4.59,1.16v-3.45ZM44.66,268.83c-1.6-3.18-4.29-5.27-8.05-4.58l8.05,4.58ZM43.51,287.24c1.51-1.4-3.01-4.91-4.59-3.44s3.01,4.91,4.59,3.44Z"/>
  <path d="M226.44,175.64c4.97,9.27,11.81,17.41,15.98,27.18,9.21,21.56,4.73,24.71,3.56,45.94-3.69,67.04,45.94,141.98,120.91,126.57,75.99-15.63,100.2-116.61,70.68-180.11-28.41-61.1-98.19-84.99-150.71-36.86l-21.23-25.74c54.3-41.39,135.11-34.91,182.92,13.65,91.99,93.43,27.67,267.57-109.9,258.32-103.08-6.92-160.5-116.59-123.09-209.36.79-1.97,8.91-20.93,10.88-19.6ZM231.05,243.53c-2.15-.3-3.98,0-4.6,2.28l4.59,1.16v-3.45ZM228.76,267.68c-.35-1.66-5.6-6.37-6.9-2.86l6.9,2.86ZM228.75,287.24c.29-2.9-1.84-3.88-4.6-3.43l1.3,3.28,3.3.15Z"/>
</svg>